<?xml version="1.0" encoding="UTF-8" standalone="no"?>
<!DOCTYPE svg PUBLIC "-//W3C//DTD SVG 1.1//EN"
 "http://www.w3.org/Graphics/SVG/1.1/DTD/svg11.dtd">
<!-- Generated by graphviz version 16.1.0 (20260904.0139)
 -->
<!-- Title: cajcl_data_flow Pages: 1 -->
<svg width="756pt" height="531pt"
 viewBox="0.00 0.00 756.00 531.00" xmlns="http://www.w3.org/2000/svg" xmlns:xlink="http://www.w3.org/1999/xlink">
<g id="graph0" class="graph" transform="scale(0.493127 0.493127) rotate(0) translate(10.8 1065.2)">
<title>cajcl_data_flow</title>
<polygon fill="white" stroke="none" points="-10.8,10.8 -10.8,-1065.2 1522.28,-1065.2 1522.28,10.8 -10.8,10.8"/>
<text xml:space="preserve" text-anchor="start" x="570.86" y="-1036.2" font-family="Helvetica,sans-Serif" font-weight="bold" font-size="16.00">CAJCL 2027 — where personal information goes</text>
<text xml:space="preserve" text-anchor="start" x="513.11" y="-1025.9" font-family="Helvetica,sans-Serif" font-size="10.00">Solid: live (Sept 2026) · Dashed: planned · Red: most sensitive · ① – ⑫ are explained in docs/PRIVACY.md §1</text>
<g id="clust1" class="cluster">
<title>cluster_people</title>
<path fill="#f3f3f3" stroke="#999999" d="M164.33,-240C164.33,-240 302.48,-240 302.48,-240 308.48,-240 314.48,-246 314.48,-252 314.48,-252 314.48,-892 314.48,-892 314.48,-898 308.48,-904 302.48,-904 302.48,-904 164.33,-904 164.33,-904 158.33,-904 152.33,-898 152.33,-892 152.33,-892 152.33,-252 152.33,-252 152.33,-246 158.33,-240 164.33,-240"/>
<text xml:space="preserve" text-anchor="start" x="213.53" y="-889.6" font-family="Helvetica,sans-Serif" font-weight="bold" font-size="12.00">People</text>
</g>
<g id="clust2" class="cluster">
<title>cluster_github</title>
<path fill="#eef3fb" stroke="#5b7bb5" d="M503.23,-286C503.23,-286 663.13,-286 663.13,-286 669.13,-286 675.13,-292 675.13,-298 675.13,-298 675.13,-485 675.13,-485 675.13,-491 669.13,-497 663.13,-497 663.13,-497 503.23,-497 503.23,-497 497.23,-497 491.23,-491 491.23,-485 491.23,-485 491.23,-298 491.23,-298 491.23,-292 497.23,-286 503.23,-286"/>
<text xml:space="preserve" text-anchor="start" x="564.8" y="-483.55" font-family="Helvetica,sans-Serif" font-weight="bold" font-size="11.00">GitHub</text>
<text xml:space="preserve" text-anchor="start" x="511.18" y="-474.45" font-family="Helvetica,sans-Serif" font-size="9.00">SOC 1 + SOC 2 Type 2 · ISO 27001</text>
</g>
<g id="clust3" class="cluster">
<title>cluster_modal</title>
<path fill="#eef8ef" stroke="#4f8f5a" d="M921.63,-406C921.63,-406 1091.28,-406 1091.28,-406 1097.28,-406 1103.28,-412 1103.28,-418 1103.28,-418 1103.28,-851 1103.28,-851 1103.28,-857 1097.28,-863 1091.28,-863 1091.28,-863 921.63,-863 921.63,-863 915.63,-863 909.63,-857 909.63,-851 909.63,-851 909.63,-418 909.63,-418 909.63,-412 915.63,-406 921.63,-406"/>
<text xml:space="preserve" text-anchor="start" x="990.7" y="-849.55" font-family="Helvetica,sans-Serif" font-weight="bold" font-size="11.00">Modal</text>
<text xml:space="preserve" text-anchor="start" x="918.7" y="-840.45" font-family="Helvetica,sans-Serif" font-size="9.00">SOC 2 Type 2 · encrypted in transit + at rest</text>
</g>
<g id="clust4" class="cluster">
<title>cluster_turso</title>
<path fill="#f6f0fb" stroke="#7d5ba6" d="M1299.9,-517C1299.9,-517 1486.8,-517 1486.8,-517 1492.8,-517 1498.8,-523 1498.8,-529 1498.8,-529 1498.8,-837 1498.8,-837 1498.8,-843 1492.8,-849 1486.8,-849 1486.8,-849 1299.9,-849 1299.9,-849 1293.9,-849 1287.9,-843 1287.9,-837 1287.9,-837 1287.9,-529 1287.9,-529 1287.9,-523 1293.9,-517 1299.9,-517"/>
<text xml:space="preserve" text-anchor="start" x="1378.73" y="-835.55" font-family="Helvetica,sans-Serif" font-weight="bold" font-size="11.00">Turso</text>
<text xml:space="preserve" text-anchor="start" x="1328.1" y="-826.45" font-family="Helvetica,sans-Serif" font-size="9.00">SOC 2 Type II · encrypted at rest</text>
</g>
<g id="clust5" class="cluster">
<title>cluster_google</title>
<path fill="#fdf5ea" stroke="#c98a2e" d="M1296.23,-8C1296.23,-8 1491.48,-8 1491.48,-8 1497.48,-8 1503.48,-14 1503.48,-20 1503.48,-20 1503.48,-480 1503.48,-480 1503.48,-486 1497.48,-492 1491.48,-492 1491.48,-492 1296.23,-492 1296.23,-492 1290.23,-492 1284.23,-486 1284.23,-480 1284.23,-480 1284.23,-20 1284.23,-20 1284.23,-14 1290.23,-8 1296.23,-8"/>
<text xml:space="preserve" text-anchor="start" x="1375.1" y="-478.55" font-family="Helvetica,sans-Serif" font-weight="bold" font-size="11.00">Google</text>
<text xml:space="preserve" text-anchor="start" x="1292.23" y="-469.45" font-family="Helvetica,sans-Serif" font-size="9.00">personal Gmail today → cajcl.org Workspace later</text>
</g>
<!-- public -->
<g id="node1" class="node">
<title>public</title>
<path fill="#ffffff" stroke="#444444" d="M264.6,-510C264.6,-510 202.2,-510 202.2,-510 196.2,-510 190.2,-504 190.2,-498 190.2,-498 190.2,-486 190.2,-486 190.2,-480 196.2,-474 202.2,-474 202.2,-474 264.6,-474 264.6,-474 270.6,-474 276.6,-480 276.6,-486 276.6,-486 276.6,-498 276.6,-498 276.6,-504 270.6,-510 264.6,-510"/>
<text xml:space="preserve" text-anchor="start" x="218.4" y="-493.5" font-family="Helvetica,sans-Serif" font-weight="bold" font-size="10.00">Public</text>
<text xml:space="preserve" text-anchor="start" x="197.4" y="-483.5" font-family="Helvetica,sans-Serif" font-size="10.00">anyone, no code</text>
</g>
<!-- pages -->
<g id="node8" class="node">
<title>pages</title>
<path fill="#ffffff" stroke="#444444" d="M663.13,-468.6C663.13,-468.6 503.23,-468.6 503.23,-468.6 497.23,-468.6 491.23,-462.6 491.23,-456.6 491.23,-456.6 491.23,-443.4 491.23,-443.4 491.23,-437.4 497.23,-431.4 503.23,-431.4 503.23,-431.4 663.13,-431.4 663.13,-431.4 669.13,-431.4 675.13,-437.4 675.13,-443.4 675.13,-443.4 675.13,-456.6 675.13,-456.6 675.13,-462.6 669.13,-468.6 663.13,-468.6"/>
<text xml:space="preserve" text-anchor="start" x="509.68" y="-456.5" font-family="Helvetica,sans-Serif" font-weight="bold" font-size="10.00">GitHub Pages</text>
<text xml:space="preserve" text-anchor="start" x="574.18" y="-456.5" font-family="Helvetica,sans-Serif" font-size="10.00"> — state.uhsjcl.org</text>
<text xml:space="preserve" text-anchor="start" x="522.43" y="-446.5" font-family="Helvetica,sans-Serif" font-size="10.00">static site + Certamen page</text>
<text xml:space="preserve" text-anchor="start" x="498.43" y="-436.5" font-family="Helvetica,sans-Serif" font-size="10.00">stores nothing · GitHub logs visitor IPs</text>
</g>
<!-- public&#45;&gt;pages -->
<!-- public&#45;&gt;pages -->
<g id="edge8" class="edge">
<title>public&#45;&gt;pages</title>
<path fill="none" stroke="#555555" d="M267.1,-473.58C290.59,-461.44 323.46,-446.65 354.48,-440.25 396.15,-431.65 443,-432 483.32,-435.29"/>
<polygon fill="#555555" stroke="#555555" points="483.11,-437.38 489.26,-435.81 483.47,-433.2 483.11,-437.38"/>
<text xml:space="preserve" text-anchor="middle" x="402.48" y="-444.93" font-family="Helvetica,sans-Serif" font-size="8.50" fill="#333333">① open site</text>
</g>
<!-- delegate -->
<g id="node2" class="node">
<title>delegate</title>
<path fill="#ffffff" stroke="#444444" d="M291.98,-792.6C291.98,-792.6 174.83,-792.6 174.83,-792.6 168.83,-792.6 162.83,-786.6 162.83,-780.6 162.83,-780.6 162.83,-767.4 162.83,-767.4 162.83,-761.4 168.83,-755.4 174.83,-755.4 174.83,-755.4 291.98,-755.4 291.98,-755.4 297.98,-755.4 303.98,-761.4 303.98,-767.4 303.98,-767.4 303.98,-780.6 303.98,-780.6 303.98,-786.6 297.98,-792.6 291.98,-792.6"/>
<text xml:space="preserve" text-anchor="start" x="186.15" y="-780.5" font-family="Helvetica,sans-Serif" font-weight="bold" font-size="10.00">Delegates (students)</text>
<text xml:space="preserve" text-anchor="start" x="170.03" y="-770.5" font-family="Helvetica,sans-Serif" font-size="10.00">grades 6–12 · some under 13</text>
<text xml:space="preserve" text-anchor="start" x="205.28" y="-760.5" font-family="Helvetica,sans-Serif" font-size="10.00">code DEL&#45;…</text>
</g>
<!-- browser -->
<g id="node10" class="node">
<title>browser</title>
<path fill="none" stroke="#444444" stroke-dasharray="5,2" d="M663.88,-922.6C663.88,-922.6 502.48,-922.6 502.48,-922.6 496.48,-922.6 490.48,-916.6 490.48,-910.6 490.48,-910.6 490.48,-897.4 490.48,-897.4 490.48,-891.4 496.48,-885.4 502.48,-885.4 502.48,-885.4 663.88,-885.4 663.88,-885.4 669.88,-885.4 675.88,-891.4 675.88,-897.4 675.88,-897.4 675.88,-910.6 675.88,-910.6 675.88,-916.6 669.88,-922.6 663.88,-922.6"/>
<text xml:space="preserve" text-anchor="start" x="527.68" y="-910.5" font-family="Helvetica,sans-Serif" font-weight="bold" font-size="10.00">The user&#39;s own browser</text>
<text xml:space="preserve" text-anchor="start" x="498.43" y="-900.5" font-family="Helvetica,sans-Serif" font-size="10.00">localStorage: session token (180 days)</text>
<text xml:space="preserve" text-anchor="start" x="497.68" y="-890.5" font-family="Helvetica,sans-Serif" font-size="10.00">form drafts (≤ 30 days) · Certamen PIN</text>
</g>
<!-- delegate&#45;&gt;browser -->
<g id="edge11" class="edge">
<title>delegate&#45;&gt;browser</title>
<path fill="none" stroke="#555555" d="M304.42,-755.38C349.25,-747.53 406.95,-745.34 450.48,-771.25 482.52,-790.32 465.11,-817.67 490.48,-845 503.77,-859.33 521.27,-871.71 537.41,-881.36"/>
<polygon fill="#555555" stroke="#555555" points="536.21,-883.09 542.45,-884.3 538.32,-879.47 536.21,-883.09"/>
<text xml:space="preserve" text-anchor="middle" x="402.48" y="-775.92" font-family="Helvetica,sans-Serif" font-size="8.50" fill="#333333">② code or QR</text>
</g>
<!-- delegate&#45;&gt;browser -->
<g id="edge20" class="edge">
<title>delegate&#45;&gt;browser</title>
<path fill="none" stroke="#555555" d="M285.34,-793.04C349,-816.84 457.67,-857.46 524.38,-882.39"/>
<polygon fill="#555555" stroke="#555555" points="523.32,-884.24 529.68,-884.38 524.79,-880.31 523.32,-884.24"/>
<text xml:space="preserve" text-anchor="middle" x="402.48" y="-877.14" font-family="Helvetica,sans-Serif" font-size="8.50" fill="#333333">③ join code + own name,</text>
<text xml:space="preserve" text-anchor="middle" x="402.48" y="-864.39" font-family="Helvetica,sans-Serif" font-size="8.50" fill="#333333">grade, level (pending until</text>
<text xml:space="preserve" text-anchor="middle" x="402.48" y="-855.39" font-family="Helvetica,sans-Serif" font-size="8.50" fill="#333333">the sponsor approves)</text>
</g>
<!-- sponsor -->
<g id="node3" class="node">
<title>sponsor</title>
<path fill="#ffffff" stroke="#444444" d="M299.1,-276C299.1,-276 167.7,-276 167.7,-276 161.7,-276 155.7,-270 155.7,-264 155.7,-264 155.7,-252 155.7,-252 155.7,-246 161.7,-240 167.7,-240 167.7,-240 299.1,-240 299.1,-240 305.1,-240 311.1,-246 311.1,-252 311.1,-252 311.1,-264 311.1,-264 311.1,-270 305.1,-276 299.1,-276"/>
<text xml:space="preserve" text-anchor="start" x="186.9" y="-259.5" font-family="Helvetica,sans-Serif" font-weight="bold" font-size="10.00">Sponsors (teachers)</text>
<text xml:space="preserve" text-anchor="start" x="162.9" y="-249.5" font-family="Helvetica,sans-Serif" font-size="10.00">code SPO&#45;… · own chapter only</text>
</g>
<!-- sponsor&#45;&gt;delegate -->
<g id="edge23" class="edge">
<title>sponsor&#45;&gt;delegate</title>
<path fill="none" stroke="#555555" stroke-dasharray="1,5" d="M215.44,-276.45C197.67,-295.44 170.55,-326.48 152.33,-357 114.95,-419.57 104.03,-437.13 89.88,-508.62 70.12,-608.49 88.46,-649.72 152.33,-729 159.52,-737.93 168.98,-745.37 178.9,-751.47"/>
<polygon fill="#555555" stroke="#555555" points="177.57,-753.12 183.81,-754.32 179.68,-749.49 177.57,-753.12"/>
<text xml:space="preserve" text-anchor="middle" x="89.08" y="-513.3" font-family="Helvetica,sans-Serif" font-size="8.50" fill="#333333">③ hands out</text>
</g>
<!-- sponsor&#45;&gt;browser -->
<g id="edge12" class="edge">
<title>sponsor&#45;&gt;browser</title>
<path fill="none" stroke="#555555" d="M255.31,-276.5C274.44,-294.82 301.65,-324.75 314.48,-357 357.37,-464.91 273.9,-794.38 354.48,-878 386.84,-911.59 437.31,-919.87 482.51,-918.97"/>
<polygon fill="#555555" stroke="#555555" points="482.57,-921.07 488.5,-918.79 482.44,-916.87 482.57,-921.07"/>
</g>
<!-- workers -->
<g id="node13" class="node">
<title>workers</title>
<path fill="#ffffff" stroke="#444444" d="M1072.53,-743.6C1072.53,-743.6 940.38,-743.6 940.38,-743.6 934.38,-743.6 928.38,-737.6 928.38,-731.6 928.38,-731.6 928.38,-718.4 928.38,-718.4 928.38,-712.4 934.38,-706.4 940.38,-706.4 940.38,-706.4 1072.53,-706.4 1072.53,-706.4 1078.53,-706.4 1084.53,-712.4 1084.53,-718.4 1084.53,-718.4 1084.53,-731.6 1084.53,-731.6 1084.53,-737.6 1078.53,-743.6 1072.53,-743.6"/>
<text xml:space="preserve" text-anchor="start" x="987.33" y="-731.5" font-family="Helvetica,sans-Serif" font-weight="bold" font-size="10.00">Workers</text>
<text xml:space="preserve" text-anchor="start" x="935.58" y="-721.5" font-family="Helvetica,sans-Serif" font-size="10.00">PDF packets · xlsx / sql exports</text>
<text xml:space="preserve" text-anchor="start" x="963.7" y="-711.5" font-family="Helvetica,sans-Serif" font-size="10.00">temporary disk only</text>
</g>
<!-- sponsor&#45;&gt;workers -->
<g id="edge22" class="edge">
<title>sponsor&#45;&gt;workers</title>
<path fill="none" stroke="#b22222" d="M256.92,-281.61C274.32,-300.78 298.12,-329.11 314.48,-357 338.69,-398.29 320.48,-423.3 354.48,-457 400.55,-502.67 429.76,-487.16 490.48,-510 572.52,-540.86 594.63,-544.35 675.88,-577.25 781.8,-620.14 903.94,-676.84 965.53,-705.96"/>
<polygon fill="#b22222" stroke="#b22222" points="258.81,-280.57 253.21,-277.57 255.72,-283.41 258.81,-280.57"/>
<text xml:space="preserve" text-anchor="middle" x="583.18" y="-581.92" font-family="Helvetica,sans-Serif" font-size="8.50" fill="#b22222">③ packet: names + codes + QR</text>
</g>
<!-- scans -->
<g id="node20" class="node">
<title>scans</title>
<path fill="#fff4f4" stroke="#b22222" stroke-width="1.8" d="M1466.18,-136.6C1466.18,-136.6 1320.53,-136.6 1320.53,-136.6 1314.53,-136.6 1308.53,-130.6 1308.53,-124.6 1308.53,-124.6 1308.53,-111.4 1308.53,-111.4 1308.53,-105.4 1314.53,-99.4 1320.53,-99.4 1320.53,-99.4 1466.18,-99.4 1466.18,-99.4 1472.18,-99.4 1478.18,-105.4 1478.18,-111.4 1478.18,-111.4 1478.18,-124.6 1478.18,-124.6 1478.18,-130.6 1472.18,-136.6 1466.18,-136.6"/>
<text xml:space="preserve" text-anchor="start" x="1318.73" y="-124.5" font-family="Helvetica,sans-Serif" font-weight="bold" font-size="10.00">Drive: waiver + MEDICAL scans</text>
<text xml:space="preserve" text-anchor="start" x="1315.73" y="-114.5" font-family="Helvetica,sans-Serif" font-size="10.00">uploaded by hand · no code reads it</text>
<text xml:space="preserve" text-anchor="start" x="1359.6" y="-104.5" font-family="Helvetica,sans-Serif" font-size="10.00">Presidents only</text>
</g>
<!-- sponsor&#45;&gt;scans -->
<g id="edge29" class="edge">
<title>sponsor&#45;&gt;scans</title>
<path fill="none" stroke="#b22222" d="M311.5,-243.31C325.77,-240.76 340.56,-238.21 354.48,-236 703.83,-180.55 791.01,-162.1 1143.28,-130 1195.15,-125.27 1253.28,-122.34 1300.32,-120.56"/>
<polygon fill="#b22222" stroke="#b22222" points="1300.35,-122.66 1306.27,-120.34 1300.19,-118.46 1300.35,-122.66"/>
<text xml:space="preserve" text-anchor="middle" x="792.75" y="-183.31" font-family="Helvetica,sans-Serif" font-size="8.50" fill="#b22222">⑦ manual upload — not through our code</text>
</g>
<!-- mail -->
<g id="node21" class="node">
<title>mail</title>
<path fill="#ffffff" stroke="#444444" stroke-dasharray="5,2" d="M1431.68,-227.6C1431.68,-227.6 1355.03,-227.6 1355.03,-227.6 1349.03,-227.6 1343.03,-221.6 1343.03,-215.6 1343.03,-215.6 1343.03,-202.4 1343.03,-202.4 1343.03,-196.4 1349.03,-190.4 1355.03,-190.4 1355.03,-190.4 1431.68,-190.4 1431.68,-190.4 1437.68,-190.4 1443.68,-196.4 1443.68,-202.4 1443.68,-202.4 1443.68,-215.6 1443.68,-215.6 1443.68,-221.6 1437.68,-227.6 1431.68,-227.6"/>
<text xml:space="preserve" text-anchor="start" x="1356.23" y="-215.5" font-family="Helvetica,sans-Serif" font-weight="bold" font-size="10.00">Gmail (planned)</text>
<text xml:space="preserve" text-anchor="start" x="1350.23" y="-205.5" font-family="Helvetica,sans-Serif" font-size="10.00">2FA one&#45;time codes</text>
<text xml:space="preserve" text-anchor="start" x="1351.73" y="-195.5" font-family="Helvetica,sans-Serif" font-size="10.00">adults + board only</text>
</g>
<!-- sponsor&#45;&gt;mail -->
<g id="edge19" class="edge">
<title>sponsor&#45;&gt;mail</title>
<path fill="none" stroke="#555555" stroke-dasharray="5,2" d="M318.52,-254.44C545.11,-244.85 1163.28,-218.69 1342.83,-211.1"/>
<polygon fill="#555555" stroke="#555555" points="318.69,-252.33 312.79,-254.68 318.87,-256.53 318.69,-252.33"/>
<text xml:space="preserve" text-anchor="middle" x="792.75" y="-242.12" font-family="Helvetica,sans-Serif" font-size="8.50" fill="#333333">② email (adults, board)</text>
</g>
<!-- sheets -->
<g id="node22" class="node">
<title>sheets</title>
<path fill="#ffffff" stroke="#444444" stroke-dasharray="5,2" d="M1452.68,-45.6C1452.68,-45.6 1334.03,-45.6 1334.03,-45.6 1328.03,-45.6 1322.03,-39.6 1322.03,-33.6 1322.03,-33.6 1322.03,-20.4 1322.03,-20.4 1322.03,-14.4 1328.03,-8.4 1334.03,-8.4 1334.03,-8.4 1452.68,-8.4 1452.68,-8.4 1458.68,-8.4 1464.68,-14.4 1464.68,-20.4 1464.68,-20.4 1464.68,-33.6 1464.68,-33.6 1464.68,-39.6 1458.68,-45.6 1452.68,-45.6"/>
<text xml:space="preserve" text-anchor="start" x="1354.35" y="-33.5" font-family="Helvetica,sans-Serif" font-weight="bold" font-size="10.00">Sheets (planned)</text>
<text xml:space="preserve" text-anchor="start" x="1331.85" y="-23.5" font-family="Helvetica,sans-Serif" font-size="10.00">one results sheet per school</text>
<text xml:space="preserve" text-anchor="start" x="1329.23" y="-13.5" font-family="Helvetica,sans-Serif" font-size="10.00">shared with that sponsor only</text>
</g>
<!-- sponsor&#45;&gt;sheets -->
<g id="edge33" class="edge">
<title>sponsor&#45;&gt;sheets</title>
<path fill="none" stroke="#555555" stroke-dasharray="5,2" d="M282.74,-236.61C304.43,-227.45 330.49,-217.03 354.48,-209 413.77,-189.15 429.41,-186.44 490.48,-173 797.19,-105.49 1168.96,-55.07 1321.68,-35.69"/>
<polygon fill="#555555" stroke="#555555" points="281.95,-234.67 277.25,-238.95 283.59,-238.53 281.95,-234.67"/>
<text xml:space="preserve" text-anchor="middle" x="792.75" y="-132.44" font-family="Helvetica,sans-Serif" font-size="8.50" fill="#333333">⑩ permanent record</text>
</g>
<!-- adult -->
<g id="node4" class="node">
<title>adult</title>
<path fill="#ffffff" stroke="#444444" d="M288.98,-883C288.98,-883 177.83,-883 177.83,-883 171.83,-883 165.83,-877 165.83,-871 165.83,-871 165.83,-859 165.83,-859 165.83,-853 171.83,-847 177.83,-847 177.83,-847 288.98,-847 288.98,-847 294.98,-847 300.98,-853 300.98,-859 300.98,-859 300.98,-871 300.98,-871 300.98,-877 294.98,-883 288.98,-883"/>
<text xml:space="preserve" text-anchor="start" x="173.03" y="-866.5" font-family="Helvetica,sans-Serif" font-weight="bold" font-size="10.00">Chaperones / other adults</text>
<text xml:space="preserve" text-anchor="start" x="205.28" y="-856.5" font-family="Helvetica,sans-Serif" font-size="10.00">code VOL&#45;…</text>
</g>
<!-- adult&#45;&gt;browser -->
<g id="edge13" class="edge">
<title>adult&#45;&gt;browser</title>
<path fill="none" stroke="#555555" d="M243.93,-883.4C261.14,-914.36 300.68,-975.85 354.48,-1000 393.4,-1017.47 409.91,-1013.22 450.48,-1000 493.74,-985.9 534.63,-951.63 559.05,-928.09"/>
<polygon fill="#555555" stroke="#555555" points="560.4,-929.71 563.22,-924.01 557.46,-926.71 560.4,-929.71"/>
</g>
<!-- board -->
<g id="node5" class="node">
<title>board</title>
<path fill="#ffffff" stroke="#444444" d="M300.98,-701.6C300.98,-701.6 165.83,-701.6 165.83,-701.6 159.83,-701.6 153.83,-695.6 153.83,-689.6 153.83,-689.6 153.83,-666.4 153.83,-666.4 153.83,-660.4 159.83,-654.4 165.83,-654.4 165.83,-654.4 300.98,-654.4 300.98,-654.4 306.98,-654.4 312.98,-660.4 312.98,-666.4 312.98,-666.4 312.98,-689.6 312.98,-689.6 312.98,-695.6 306.98,-701.6 300.98,-701.6"/>
<text xml:space="preserve" text-anchor="start" x="197.4" y="-689.5" font-family="Helvetica,sans-Serif" font-weight="bold" font-size="10.00">Board / admins</text>
<text xml:space="preserve" text-anchor="start" x="161.03" y="-679.5" font-family="Helvetica,sans-Serif" font-size="10.00">registration · academics · awards</text>
<text xml:space="preserve" text-anchor="start" x="165.15" y="-669.5" font-family="Helvetica,sans-Serif" font-size="10.00">activities (photo contest) chairs</text>
<text xml:space="preserve" text-anchor="start" x="189.15" y="-659.5" font-family="Helvetica,sans-Serif" font-size="10.00">Presidents (scope *)</text>
</g>
<!-- board&#45;&gt;browser -->
<g id="edge14" class="edge">
<title>board&#45;&gt;browser</title>
<path fill="none" stroke="#555555" d="M286.65,-701.87C297.27,-708.91 307.35,-717.58 314.48,-728 368.37,-806.78 280.97,-878.12 354.48,-939 407.98,-983.31 493.71,-951.38 543.3,-926.27"/>
<polygon fill="#555555" stroke="#555555" points="544.04,-928.25 548.41,-923.63 542.11,-924.51 544.04,-928.25"/>
</g>
<!-- board&#45;&gt;workers -->
<g id="edge24" class="edge">
<title>board&#45;&gt;workers</title>
<path fill="none" stroke="#555555" d="M320.19,-699.72C442.15,-727.92 672.72,-771.38 869.63,-752 888.65,-750.13 908.95,-746.81 927.91,-743.14"/>
<polygon fill="#555555" stroke="#555555" points="320.83,-697.71 314.51,-698.4 319.87,-701.8 320.83,-697.71"/>
<text xml:space="preserve" text-anchor="middle" x="583.18" y="-758.56" font-family="Helvetica,sans-Serif" font-size="8.50" fill="#333333">⑧ export (scope *, audited)</text>
</g>
<!-- judge -->
<g id="node6" class="node">
<title>judge</title>
<path fill="#ffffff" stroke="#444444" d="M299.48,-600C299.48,-600 167.33,-600 167.33,-600 161.33,-600 155.33,-594 155.33,-588 155.33,-588 155.33,-576 155.33,-576 155.33,-570 161.33,-564 167.33,-564 167.33,-564 299.48,-564 299.48,-564 305.48,-564 311.48,-570 311.48,-576 311.48,-576 311.48,-588 311.48,-588 311.48,-594 305.48,-600 299.48,-600"/>
<text xml:space="preserve" text-anchor="start" x="198.15" y="-583.5" font-family="Helvetica,sans-Serif" font-weight="bold" font-size="10.00">Contest judges</text>
<text xml:space="preserve" text-anchor="start" x="162.53" y="-573.5" font-family="Helvetica,sans-Serif" font-size="10.00">scope judge · never sees names</text>
</g>
<!-- judge&#45;&gt;browser -->
<g id="edge15" class="edge">
<title>judge&#45;&gt;browser</title>
<path fill="none" stroke="#555555" d="M270.25,-600.47C284.35,-608.16 300.49,-617.51 314.48,-627 378.81,-670.64 405.13,-673.85 450.48,-737 480.33,-778.58 458.41,-805.1 490.48,-845 502.3,-859.72 518.84,-871.93 534.62,-881.35"/>
<polygon fill="#555555" stroke="#555555" points="533.29,-883 539.53,-884.19 535.39,-879.37 533.29,-883"/>
</g>
<!-- api -->
<g id="node11" class="node">
<title>api</title>
<path fill="#ffffff" stroke="#444444" d="M1091.28,-598.6C1091.28,-598.6 921.63,-598.6 921.63,-598.6 915.63,-598.6 909.63,-592.6 909.63,-586.6 909.63,-586.6 909.63,-563.4 909.63,-563.4 909.63,-557.4 915.63,-551.4 921.63,-551.4 921.63,-551.4 1091.28,-551.4 1091.28,-551.4 1097.28,-551.4 1103.28,-557.4 1103.28,-563.4 1103.28,-563.4 1103.28,-586.6 1103.28,-586.6 1103.28,-592.6 1097.28,-598.6 1091.28,-598.6"/>
<text xml:space="preserve" text-anchor="start" x="975.33" y="-586.5" font-family="Helvetica,sans-Serif" font-weight="bold" font-size="10.00">API</text>
<text xml:space="preserve" text-anchor="start" x="992.58" y="-586.5" font-family="Helvetica,sans-Serif" font-size="10.00"> (FastAPI)</text>
<text xml:space="preserve" text-anchor="start" x="931.08" y="-576.5" font-family="Helvetica,sans-Serif" font-size="10.00">every route: scope + school check</text>
<text xml:space="preserve" text-anchor="start" x="916.83" y="-566.5" font-family="Helvetica,sans-Serif" font-size="10.00">sign&#45;in rate limits · audit on every change</text>
<text xml:space="preserve" text-anchor="start" x="930.7" y="-556.5" font-family="Helvetica,sans-Serif" font-size="10.00">security headers · CORS allow&#45;list</text>
</g>
<!-- judge&#45;&gt;api -->
<g id="edge27" class="edge">
<title>judge&#45;&gt;api</title>
<path fill="none" stroke="#555555" stroke-dasharray="1,5" d="M319.15,-590.7C368.97,-595.38 433.23,-600.66 490.48,-603 572.81,-606.37 593.55,-606.49 675.88,-603 754.62,-599.66 843.66,-591.85 909.32,-585.33"/>
<polygon fill="#555555" stroke="#555555" points="319.58,-588.63 313.41,-590.16 319.18,-592.81 319.58,-588.63"/>
<text xml:space="preserve" text-anchor="middle" x="583.18" y="-610.25" font-family="Helvetica,sans-Serif" font-size="8.50" fill="#333333">⑥ &quot;Entry N&quot; — no names</text>
</g>
<!-- parent -->
<g id="node7" class="node">
<title>parent</title>
<path fill="#fff4f4" stroke="#b22222" d="M302.48,-420C302.48,-420 164.33,-420 164.33,-420 158.33,-420 152.33,-414 152.33,-408 152.33,-408 152.33,-396 152.33,-396 152.33,-390 158.33,-384 164.33,-384 164.33,-384 302.48,-384 302.48,-384 308.48,-384 314.48,-390 314.48,-396 314.48,-396 314.48,-408 314.48,-408 314.48,-414 308.48,-420 302.48,-420"/>
<text xml:space="preserve" text-anchor="start" x="188.03" y="-403.5" font-family="Helvetica,sans-Serif" font-weight="bold" font-size="10.00">Parents / guardians</text>
<text xml:space="preserve" text-anchor="start" x="159.53" y="-393.5" font-family="Helvetica,sans-Serif" font-size="10.00">paper only: waiver + medical form</text>
</g>
<!-- parent&#45;&gt;sponsor -->
<g id="edge28" class="edge">
<title>parent&#45;&gt;sponsor</title>
<path fill="none" stroke="#b22222" d="M233.4,-383.91C233.4,-358.56 233.4,-312.36 233.4,-283.52"/>
<polygon fill="#b22222" stroke="#b22222" points="235.5,-283.75 233.4,-277.75 231.3,-283.75 235.5,-283.75"/>
<text xml:space="preserve" text-anchor="middle" x="224.03" y="-328.3" font-family="Helvetica,sans-Serif" font-size="8.50" fill="#b22222">⑦ signed</text>
</g>
<!-- pages&#45;&gt;browser -->
<g id="edge9" class="edge">
<title>pages&#45;&gt;browser</title>
<path fill="none" stroke="#555555" d="M490.79,-465.82C458.41,-476.28 425.33,-493.66 405.97,-522.5 364.67,-584.01 446.61,-785.3 490.48,-845 501.54,-860.06 517.72,-872.24 533.47,-881.53"/>
<polygon fill="#555555" stroke="#555555" points="532.14,-883.19 538.4,-884.33 534.22,-879.54 532.14,-883.19"/>
<text xml:space="preserve" text-anchor="middle" x="402.48" y="-523.42" font-family="Helvetica,sans-Serif" font-size="8.50" fill="#333333">page + scripts</text>
</g>
<!-- pages&#45;&gt;api -->
<!-- actions -->
<g id="node9" class="node">
<title>actions</title>
<path fill="#ffffff" stroke="#444444" d="M641,-323.6C641,-323.6 525.35,-323.6 525.35,-323.6 519.35,-323.6 513.35,-317.6 513.35,-311.6 513.35,-311.6 513.35,-298.4 513.35,-298.4 513.35,-292.4 519.35,-286.4 525.35,-286.4 525.35,-286.4 641,-286.4 641,-286.4 647,-286.4 653,-292.4 653,-298.4 653,-298.4 653,-311.6 653,-311.6 653,-317.6 647,-323.6 641,-323.6"/>
<text xml:space="preserve" text-anchor="start" x="547.93" y="-311.5" font-family="Helvetica,sans-Serif" font-weight="bold" font-size="10.00">GitHub Actions</text>
<text xml:space="preserve" text-anchor="start" x="520.55" y="-301.5" font-family="Helvetica,sans-Serif" font-size="10.00">deploy · daily stats snapshot</text>
<text xml:space="preserve" text-anchor="start" x="532.18" y="-291.5" font-family="Helvetica,sans-Serif" font-size="10.00">(aggregate counts only)</text>
</g>
<!-- actions&#45;&gt;pages -->
<g id="edge36" class="edge">
<title>actions&#45;&gt;pages</title>
<path fill="none" stroke="#555555" d="M583.18,-323.96C583.18,-349.47 583.18,-394.96 583.18,-423.75"/>
<polygon fill="#555555" stroke="#555555" points="581.08,-423.53 583.18,-429.53 585.28,-423.53 581.08,-423.53"/>
<text xml:space="preserve" text-anchor="middle" x="573.8" y="-375.8" font-family="Helvetica,sans-Serif" font-size="8.50" fill="#333333">⑪ bake stats · deploy</text>
</g>
<!-- actions&#45;&gt;browser -->
<!-- maindb -->
<g id="node15" class="node">
<title>maindb</title>
<path fill="#ffffff" stroke="#444444" d="M1486.8,-584.6C1486.8,-584.6 1299.9,-584.6 1299.9,-584.6 1293.9,-584.6 1287.9,-578.6 1287.9,-572.6 1287.9,-572.6 1287.9,-529.4 1287.9,-529.4 1287.9,-523.4 1293.9,-517.4 1299.9,-517.4 1299.9,-517.4 1486.8,-517.4 1486.8,-517.4 1492.8,-517.4 1498.8,-523.4 1498.8,-529.4 1498.8,-529.4 1498.8,-572.6 1498.8,-572.6 1498.8,-578.6 1492.8,-584.6 1486.8,-584.6"/>
<text xml:space="preserve" text-anchor="start" x="1359.98" y="-572.5" font-family="Helvetica,sans-Serif" font-weight="bold" font-size="10.00">Main database</text>
<text xml:space="preserve" text-anchor="start" x="1320.6" y="-562.5" font-family="Helvetica,sans-Serif" font-size="10.00">names · grade · Latin level · meal</text>
<text xml:space="preserve" text-anchor="start" x="1295.1" y="-552.5" font-family="Helvetica,sans-Serif" font-size="10.00">guardian name + phone · adult email + phone</text>
<text xml:space="preserve" text-anchor="start" x="1320.23" y="-542.5" font-family="Helvetica,sans-Serif" font-size="10.00">event choices · contest entry text</text>
<text xml:space="preserve" text-anchor="start" x="1298.48" y="-532.5" font-family="Helvetica,sans-Serif" font-size="10.00">HMAC of codes and IPs · hashed sessions</text>
<text xml:space="preserve" text-anchor="start" x="1308.23" y="-522.5" font-family="Helvetica,sans-Serif" font-size="10.00">append&#45;only audit log (contains names)</text>
</g>
<!-- actions&#45;&gt;maindb -->
<g id="edge35" class="edge">
<title>actions&#45;&gt;maindb</title>
<path fill="none" stroke="#555555" d="M609.28,-323.92C631.03,-341.89 661.25,-371.02 675.88,-404 716.94,-496.58 641.18,-789.6 715.88,-858 766.27,-904.15 819.33,-904.26 869.63,-858 948.04,-785.88 843.19,-463.54 909.63,-380.25 1005.3,-260.3 1128.67,-208.05 1246.78,-306 1316.05,-363.45 1227.83,-434.87 1284.23,-505 1286.35,-507.64 1288.66,-510.14 1291.11,-512.49"/>
<polygon fill="#555555" stroke="#555555" points="1289.32,-513.71 1295.21,-516.12 1292.11,-510.57 1289.32,-513.71"/>
<text xml:space="preserve" text-anchor="middle" x="1006.45" y="-384.93" font-family="Helvetica,sans-Serif" font-size="8.50" fill="#333333">⑪ read counts</text>
</g>
<!-- browser&#45;&gt;api -->
<g id="edge10" class="edge">
<title>browser&#45;&gt;api</title>
<path fill="none" stroke="#555555" d="M615.25,-885.08C633.25,-873.86 656.18,-859.11 675.88,-845 789.75,-763.42 915.52,-654.77 973.25,-603.76"/>
<polygon fill="#555555" stroke="#555555" points="974.39,-605.55 977.49,-600 971.61,-602.41 974.39,-605.55"/>
<text xml:space="preserve" text-anchor="middle" x="792.75" y="-837.07" font-family="Helvetica,sans-Serif" font-size="8.50" fill="#333333">① /public/*: counts only</text>
<text xml:space="preserve" text-anchor="middle" x="792.75" y="-824.32" font-family="Helvetica,sans-Serif" font-size="8.50" fill="#333333">② sign&#45;in · ③–⑥ every signed&#45;in request</text>
<text xml:space="preserve" text-anchor="middle" x="792.75" y="-811.57" font-family="Helvetica,sans-Serif" font-size="8.50" fill="#333333">(HTTPS, Bearer token)</text>
</g>
<!-- certapi -->
<g id="node14" class="node">
<title>certapi</title>
<path fill="#ffffff" stroke="#b22222" d="M1067.28,-834.6C1067.28,-834.6 945.63,-834.6 945.63,-834.6 939.63,-834.6 933.63,-828.6 933.63,-822.6 933.63,-822.6 933.63,-809.4 933.63,-809.4 933.63,-803.4 939.63,-797.4 945.63,-797.4 945.63,-797.4 1067.28,-797.4 1067.28,-797.4 1073.28,-797.4 1079.28,-803.4 1079.28,-809.4 1079.28,-809.4 1079.28,-822.6 1079.28,-822.6 1079.28,-828.6 1073.28,-834.6 1067.28,-834.6"/>
<text xml:space="preserve" text-anchor="start" x="980.2" y="-822.5" font-family="Helvetica,sans-Serif" font-weight="bold" font-size="10.00">/certamen/*</text>
<text xml:space="preserve" text-anchor="start" x="940.83" y="-812.5" font-family="Helvetica,sans-Serif" font-size="10.00">NO sign&#45;in · PINs in plain text</text>
<text xml:space="preserve" text-anchor="start" x="953.2" y="-802.5" font-family="Helvetica,sans-Serif" font-size="10.00">(known weakness, §2.8)</text>
</g>
<!-- browser&#45;&gt;certapi -->
<g id="edge30" class="edge">
<title>browser&#45;&gt;certapi</title>
<path fill="none" stroke="#555555" d="M605.05,-923.02C629.52,-943.9 672.28,-976.15 715.88,-989 781.42,-1008.32 808.17,-1018.88 869.63,-989 933.09,-958.14 975.71,-881.68 994.5,-841.54"/>
<polygon fill="#555555" stroke="#555555" points="996.3,-842.65 996.9,-836.33 992.48,-840.9 996.3,-842.65"/>
<text xml:space="preserve" text-anchor="middle" x="792.75" y="-1012.33" font-family="Helvetica,sans-Serif" font-size="8.50" fill="#333333">⑨ practice (anyone)</text>
</g>
<!-- api&#45;&gt;workers -->
<g id="edge21" class="edge">
<title>api&#45;&gt;workers</title>
<path fill="none" stroke="#555555" d="M1006.45,-598.77C1006.45,-625.95 1006.45,-670.34 1006.45,-698.58"/>
<polygon fill="#555555" stroke="#555555" points="1004.35,-698.58 1006.45,-704.58 1008.55,-698.58 1004.35,-698.58"/>
<text xml:space="preserve" text-anchor="middle" x="997.08" y="-650.8" font-family="Helvetica,sans-Serif" font-size="8.50" fill="#333333">③ print · ⑧ export</text>
</g>
<!-- api&#45;&gt;maindb -->
<!-- api&#45;&gt;maindb -->
<g id="edge17" class="edge">
<title>api&#45;&gt;maindb</title>
<path fill="none" stroke="#555555" d="M1103.58,-569.01C1157.18,-565.66 1224.2,-561.48 1280.18,-557.99"/>
<polygon fill="#555555" stroke="#555555" points="1280.28,-560.09 1286.14,-557.62 1280.02,-555.9 1280.28,-560.09"/>
<text xml:space="preserve" text-anchor="middle" x="1195.03" y="-605.03" font-family="Helvetica,sans-Serif" font-size="8.50" fill="#333333">② HMAC(code) → session</text>
<text xml:space="preserve" text-anchor="middle" x="1195.03" y="-592.28" font-family="Helvetica,sans-Serif" font-size="8.50" fill="#333333">③ roster · ④ activity sheets</text>
<text xml:space="preserve" text-anchor="middle" x="1195.03" y="-579.53" font-family="Helvetica,sans-Serif" font-size="8.50" fill="#333333">⑤ entries · audit rows</text>
<text xml:space="preserve" text-anchor="middle" x="1195.03" y="-566.78" font-family="Helvetica,sans-Serif" font-size="8.50" fill="#333333">(TLS · parameterised SQL)</text>
</g>
<!-- gas -->
<g id="node18" class="node">
<title>gas</title>
<path fill="#ffffff" stroke="#444444" d="M1460.55,-318.6C1460.55,-318.6 1326.15,-318.6 1326.15,-318.6 1320.15,-318.6 1314.15,-312.6 1314.15,-306.6 1314.15,-306.6 1314.15,-293.4 1314.15,-293.4 1314.15,-287.4 1320.15,-281.4 1326.15,-281.4 1326.15,-281.4 1460.55,-281.4 1460.55,-281.4 1466.55,-281.4 1472.55,-287.4 1472.55,-293.4 1472.55,-293.4 1472.55,-306.6 1472.55,-306.6 1472.55,-312.6 1466.55,-318.6 1460.55,-318.6"/>
<text xml:space="preserve" text-anchor="start" x="1343.48" y="-306.5" font-family="Helvetica,sans-Serif" font-weight="bold" font-size="10.00">Apps Script &quot;puppet&quot;</text>
<text xml:space="preserve" text-anchor="start" x="1331.85" y="-296.5" font-family="Helvetica,sans-Serif" font-size="10.00">upload · fetch · mkdir · trash</text>
<text xml:space="preserve" text-anchor="start" x="1321.35" y="-286.5" font-family="Helvetica,sans-Serif" font-size="10.00">HMAC&#45;signed · 5&#45;minute window</text>
</g>
<!-- api&#45;&gt;gas -->
<g id="edge25" class="edge">
<title>api&#45;&gt;gas</title>
<path fill="none" stroke="#555555" d="M1046.87,-546.84C1123.18,-492.31 1289.77,-373.29 1360.05,-323.08"/>
<polygon fill="#555555" stroke="#555555" points="1045.83,-545 1042.17,-550.2 1048.27,-548.42 1045.83,-545"/>
<polygon fill="#555555" stroke="#555555" points="1360.85,-325.08 1364.51,-319.89 1358.41,-321.67 1360.85,-325.08"/>
<text xml:space="preserve" text-anchor="middle" x="1195.03" y="-496.64" font-family="Helvetica,sans-Serif" font-size="8.50" fill="#333333">⑤ upload (entries, photos</text>
<text xml:space="preserve" text-anchor="middle" x="1195.03" y="-483.89" font-family="Helvetica,sans-Serif" font-size="8.50" fill="#333333">without location data)</text>
<text xml:space="preserve" text-anchor="middle" x="1195.03" y="-474.89" font-family="Helvetica,sans-Serif" font-size="8.50" fill="#333333">⑥ fetch (signed)</text>
</g>
<!-- api&#45;&gt;mail -->
<g id="edge18" class="edge">
<title>api&#45;&gt;mail</title>
<path fill="none" stroke="#555555" stroke-dasharray="5,2" d="M1034.05,-550.94C1054.89,-531.04 1083.56,-501.23 1103.28,-471 1127.57,-433.74 1117.15,-415.25 1143.28,-379.25 1192.49,-311.42 1213.24,-298.55 1284.23,-254 1300.19,-243.98 1318.77,-235.32 1335.98,-228.34"/>
<polygon fill="#555555" stroke="#555555" points="1336.54,-230.38 1341.34,-226.21 1334.99,-226.48 1336.54,-230.38"/>
<text xml:space="preserve" text-anchor="middle" x="1195.03" y="-383.93" font-family="Helvetica,sans-Serif" font-size="8.50" fill="#333333">② planned: 2FA code</text>
</g>
<!-- secrets -->
<g id="node12" class="node">
<title>secrets</title>
<path fill="#fffbe6" stroke="#444444" d="M1072.53,-443.6C1072.53,-443.6 940.38,-443.6 940.38,-443.6 934.38,-443.6 928.38,-437.6 928.38,-431.6 928.38,-431.6 928.38,-418.4 928.38,-418.4 928.38,-412.4 934.38,-406.4 940.38,-406.4 940.38,-406.4 1072.53,-406.4 1072.53,-406.4 1078.53,-406.4 1084.53,-412.4 1084.53,-418.4 1084.53,-418.4 1084.53,-431.6 1084.53,-431.6 1084.53,-437.6 1078.53,-443.6 1072.53,-443.6"/>
<text xml:space="preserve" text-anchor="start" x="973.45" y="-431.5" font-family="Helvetica,sans-Serif" font-weight="bold" font-size="10.00">Modal Secrets</text>
<text xml:space="preserve" text-anchor="start" x="935.58" y="-421.5" font-family="Helvetica,sans-Serif" font-size="10.00">CODE_PEPPER · Turso tokens</text>
<text xml:space="preserve" text-anchor="start" x="971.58" y="-411.5" font-family="Helvetica,sans-Serif" font-size="10.00">Apps Script key</text>
</g>
<!-- secrets&#45;&gt;api -->
<g id="edge16" class="edge">
<title>secrets&#45;&gt;api</title>
<path fill="none" stroke="#555555" stroke-dasharray="1,5" d="M1006.45,-444C1006.45,-469.07 1006.45,-513.54 1006.45,-543.64"/>
<polygon fill="#555555" stroke="#555555" points="1004.35,-543.45 1006.45,-549.45 1008.55,-543.45 1004.35,-543.45"/>
<text xml:space="preserve" text-anchor="middle" x="998.95" y="-493.93" font-family="Helvetica,sans-Serif" font-size="8.50" fill="#333333">pepper</text>
</g>
<!-- certdb -->
<g id="node17" class="node">
<title>certdb</title>
<path fill="#ffffff" stroke="#444444" d="M1443.68,-820.6C1443.68,-820.6 1343.03,-820.6 1343.03,-820.6 1337.03,-820.6 1331.03,-814.6 1331.03,-808.6 1331.03,-808.6 1331.03,-795.4 1331.03,-795.4 1331.03,-789.4 1337.03,-783.4 1343.03,-783.4 1343.03,-783.4 1443.68,-783.4 1443.68,-783.4 1449.68,-783.4 1455.68,-789.4 1455.68,-795.4 1455.68,-795.4 1455.68,-808.6 1455.68,-808.6 1455.68,-814.6 1449.68,-820.6 1443.68,-820.6"/>
<text xml:space="preserve" text-anchor="start" x="1348.73" y="-808.5" font-family="Helvetica,sans-Serif" font-weight="bold" font-size="10.00">Certamen database</text>
<text xml:space="preserve" text-anchor="start" x="1338.23" y="-798.5" font-family="Helvetica,sans-Serif" font-size="10.00">username · PIN · chapter</text>
<text xml:space="preserve" text-anchor="start" x="1363.73" y="-788.5" font-family="Helvetica,sans-Serif" font-size="10.00">answers · XP</text>
</g>
<!-- certapi&#45;&gt;certdb -->
<g id="edge31" class="edge">
<title>certapi&#45;&gt;certdb</title>
<path fill="none" stroke="#555555" d="M1079.4,-813.38C1149.2,-810.84 1254.4,-807.02 1323.23,-804.51"/>
<polygon fill="#555555" stroke="#555555" points="1323.17,-806.62 1329.09,-804.3 1323.02,-802.42 1323.17,-806.62"/>
<text xml:space="preserve" text-anchor="middle" x="1195.03" y="-815.34" font-family="Helvetica,sans-Serif" font-size="8.50" fill="#333333">⑨</text>
</g>
<!-- archive -->
<g id="node16" class="node">
<title>archive</title>
<path fill="#ffffff" stroke="#444444" stroke-dasharray="5,2" d="M1483.8,-729.6C1483.8,-729.6 1302.9,-729.6 1302.9,-729.6 1296.9,-729.6 1290.9,-723.6 1290.9,-717.6 1290.9,-717.6 1290.9,-704.4 1290.9,-704.4 1290.9,-698.4 1296.9,-692.4 1302.9,-692.4 1302.9,-692.4 1483.8,-692.4 1483.8,-692.4 1489.8,-692.4 1495.8,-698.4 1495.8,-704.4 1495.8,-704.4 1495.8,-717.6 1495.8,-717.6 1495.8,-723.6 1489.8,-729.6 1483.8,-729.6"/>
<text xml:space="preserve" text-anchor="start" x="1328.48" y="-717.5" font-family="Helvetica,sans-Serif" font-weight="bold" font-size="10.00">Archive — from 12 Apr 2027</text>
<text xml:space="preserve" text-anchor="start" x="1314.23" y="-707.5" font-family="Helvetica,sans-Serif" font-size="10.00">person no. + chapter + grade + level</text>
<text xml:space="preserve" text-anchor="start" x="1298.1" y="-697.5" font-family="Helvetica,sans-Serif" font-size="10.00">+ placements · NO names (pseudonymous)</text>
</g>
<!-- maindb&#45;&gt;archive -->
<g id="edge34" class="edge">
<title>maindb&#45;&gt;archive</title>
<path fill="none" stroke="#555555" stroke-dasharray="5,2" d="M1393.35,-584.93C1393.35,-614.78 1393.35,-657.61 1393.35,-684.87"/>
<polygon fill="#555555" stroke="#555555" points="1391.25,-684.6 1393.35,-690.6 1395.45,-684.6 1391.25,-684.6"/>
<text xml:space="preserve" text-anchor="middle" x="1379.48" y="-641.3" font-family="Helvetica,sans-Serif" font-size="8.50" fill="#333333">⑫ 12 Apr 2027: keep</text>
<text xml:space="preserve" text-anchor="middle" x="1379.48" y="-628.55" font-family="Helvetica,sans-Serif" font-size="8.50" fill="#333333">no names, destroy the rest</text>
</g>
<!-- maindb&#45;&gt;sheets -->
<g id="edge32" class="edge">
<title>maindb&#45;&gt;sheets</title>
<path fill="none" stroke="#555555" stroke-dasharray="5,2" d="M1297.35,-517.24C1292.57,-513.56 1288.14,-509.5 1284.23,-505 1229.61,-442.29 1153.74,-217.08 1190.79,-142.62 1214.77,-94.44 1268.46,-65.12 1314.54,-48.06"/>
<polygon fill="#555555" stroke="#555555" points="1315.21,-50.05 1320.15,-46.05 1313.79,-46.1 1315.21,-50.05"/>
<text xml:space="preserve" text-anchor="middle" x="1195.03" y="-147.3" font-family="Helvetica,sans-Serif" font-size="8.50" fill="#333333">⑩ results by school</text>
</g>
<!-- drive -->
<g id="node19" class="node">
<title>drive</title>
<path fill="#ffffff" stroke="#444444" d="M1487.93,-463.6C1487.93,-463.6 1298.78,-463.6 1298.78,-463.6 1292.78,-463.6 1286.78,-457.6 1286.78,-451.6 1286.78,-451.6 1286.78,-438.4 1286.78,-438.4 1286.78,-432.4 1292.78,-426.4 1298.78,-426.4 1298.78,-426.4 1487.93,-426.4 1487.93,-426.4 1493.93,-426.4 1499.93,-432.4 1499.93,-438.4 1499.93,-438.4 1499.93,-451.6 1499.93,-451.6 1499.93,-457.6 1493.93,-463.6 1487.93,-463.6"/>
<text xml:space="preserve" text-anchor="start" x="1321.73" y="-451.5" font-family="Helvetica,sans-Serif" font-weight="bold" font-size="10.00">Drive: contest entries + photos</text>
<text xml:space="preserve" text-anchor="start" x="1319.48" y="-441.5" font-family="Helvetica,sans-Serif" font-size="10.00">Contest / Chapter / Last, First.ext</text>
<text xml:space="preserve" text-anchor="start" x="1293.98" y="-431.5" font-family="Helvetica,sans-Serif" font-size="10.00">Photo Contest / Category / photo + thumbnail</text>
</g>
<!-- gas&#45;&gt;drive -->
<!-- gas&#45;&gt;drive -->
<g id="edge26" class="edge">
<title>gas&#45;&gt;drive</title>
<path fill="none" stroke="#555555" d="M1393.35,-318.96C1393.35,-344.47 1393.35,-389.96 1393.35,-418.75"/>
<polygon fill="#555555" stroke="#555555" points="1391.25,-418.53 1393.35,-424.53 1395.45,-418.53 1391.25,-418.53"/>
<text xml:space="preserve" text-anchor="middle" x="1383.98" y="-370.8" font-family="Helvetica,sans-Serif" font-size="8.50" fill="#333333">⑤</text>
</g>
<!-- drive&#45;&gt;scans -->
<!-- mail&#45;&gt;sheets -->
</g>
</svg>
